<mxfile host="app.diagrams.net" agent="Mozilla/5.0 (Windows NT 10.0; Win64; x64) AppleWebKit/537.36 (KHTML, like Gecko) Chrome/141.0.0.0 Safari/537.36 Edg/141.0.0.0" version="28.2.7">
  <diagram name="Страница — 1" id="KgwtYNFD9l3FrgeyyXYj">
    <mxGraphModel dx="1949" dy="889" grid="1" gridSize="10" guides="1" tooltips="1" connect="1" arrows="1" fold="1" page="1" pageScale="1" pageWidth="827" pageHeight="1169" math="0" shadow="0">
      <root>
        <mxCell id="0" />
        <mxCell id="1" parent="0" />
        <mxCell id="6mh1XwxSeYeHlbQQtR5O-3" value="" style="edgeStyle=orthogonalEdgeStyle;rounded=0;orthogonalLoop=1;jettySize=auto;html=1;" edge="1" parent="1" source="6mh1XwxSeYeHlbQQtR5O-1" target="6mh1XwxSeYeHlbQQtR5O-2">
          <mxGeometry relative="1" as="geometry" />
        </mxCell>
        <mxCell id="6mh1XwxSeYeHlbQQtR5O-1" value="Начало" style="rounded=1;whiteSpace=wrap;html=1;" vertex="1" parent="1">
          <mxGeometry x="350" y="260" width="120" height="60" as="geometry" />
        </mxCell>
        <mxCell id="6mh1XwxSeYeHlbQQtR5O-5" value="" style="edgeStyle=orthogonalEdgeStyle;rounded=0;orthogonalLoop=1;jettySize=auto;html=1;" edge="1" parent="1" source="6mh1XwxSeYeHlbQQtR5O-2" target="6mh1XwxSeYeHlbQQtR5O-4">
          <mxGeometry relative="1" as="geometry" />
        </mxCell>
        <mxCell id="6mh1XwxSeYeHlbQQtR5O-2" value="a, b, c" style="shape=parallelogram;perimeter=parallelogramPerimeter;whiteSpace=wrap;html=1;fixedSize=1;rounded=1;" vertex="1" parent="1">
          <mxGeometry x="350" y="340" width="120" height="60" as="geometry" />
        </mxCell>
        <mxCell id="6mh1XwxSeYeHlbQQtR5O-16" style="edgeStyle=orthogonalEdgeStyle;rounded=0;orthogonalLoop=1;jettySize=auto;html=1;exitX=0;exitY=0.5;exitDx=0;exitDy=0;entryX=0.5;entryY=0;entryDx=0;entryDy=0;" edge="1" parent="1" source="6mh1XwxSeYeHlbQQtR5O-4" target="6mh1XwxSeYeHlbQQtR5O-14">
          <mxGeometry relative="1" as="geometry" />
        </mxCell>
        <mxCell id="6mh1XwxSeYeHlbQQtR5O-17" style="edgeStyle=orthogonalEdgeStyle;rounded=0;orthogonalLoop=1;jettySize=auto;html=1;exitX=1;exitY=0.5;exitDx=0;exitDy=0;" edge="1" parent="1" source="6mh1XwxSeYeHlbQQtR5O-4" target="6mh1XwxSeYeHlbQQtR5O-13">
          <mxGeometry relative="1" as="geometry" />
        </mxCell>
        <mxCell id="6mh1XwxSeYeHlbQQtR5O-20" value="" style="edgeStyle=orthogonalEdgeStyle;rounded=0;orthogonalLoop=1;jettySize=auto;html=1;" edge="1" parent="1" source="6mh1XwxSeYeHlbQQtR5O-4" target="6mh1XwxSeYeHlbQQtR5O-19">
          <mxGeometry relative="1" as="geometry" />
        </mxCell>
        <mxCell id="6mh1XwxSeYeHlbQQtR5O-4" value="a &gt; -1 &amp;&amp; a &lt; 1" style="rhombus;whiteSpace=wrap;html=1;rounded=1;" vertex="1" parent="1">
          <mxGeometry x="355" y="430" width="110" height="80" as="geometry" />
        </mxCell>
        <mxCell id="6mh1XwxSeYeHlbQQtR5O-13" value="Нет" style="rounded=0;whiteSpace=wrap;html=1;" vertex="1" parent="1">
          <mxGeometry x="465" y="500" width="120" height="60" as="geometry" />
        </mxCell>
        <mxCell id="6mh1XwxSeYeHlbQQtR5O-14" value="Да" style="rounded=0;whiteSpace=wrap;html=1;" vertex="1" parent="1">
          <mxGeometry x="235" y="500" width="120" height="60" as="geometry" />
        </mxCell>
        <mxCell id="6mh1XwxSeYeHlbQQtR5O-23" style="edgeStyle=orthogonalEdgeStyle;rounded=0;orthogonalLoop=1;jettySize=auto;html=1;exitX=0;exitY=0.5;exitDx=0;exitDy=0;entryX=0.5;entryY=0;entryDx=0;entryDy=0;" edge="1" parent="1" source="6mh1XwxSeYeHlbQQtR5O-19" target="6mh1XwxSeYeHlbQQtR5O-22">
          <mxGeometry relative="1" as="geometry" />
        </mxCell>
        <mxCell id="6mh1XwxSeYeHlbQQtR5O-24" style="edgeStyle=orthogonalEdgeStyle;rounded=0;orthogonalLoop=1;jettySize=auto;html=1;exitX=1;exitY=0.5;exitDx=0;exitDy=0;" edge="1" parent="1" source="6mh1XwxSeYeHlbQQtR5O-19" target="6mh1XwxSeYeHlbQQtR5O-21">
          <mxGeometry relative="1" as="geometry" />
        </mxCell>
        <mxCell id="6mh1XwxSeYeHlbQQtR5O-19" value="b &amp;gt; -1 &amp;amp;&amp;amp; b &amp;lt; 1" style="rhombus;whiteSpace=wrap;html=1;rounded=1;" vertex="1" parent="1">
          <mxGeometry x="340" y="585" width="140" height="80" as="geometry" />
        </mxCell>
        <mxCell id="6mh1XwxSeYeHlbQQtR5O-21" value="Нет" style="rounded=0;whiteSpace=wrap;html=1;" vertex="1" parent="1">
          <mxGeometry x="470" y="660" width="120" height="60" as="geometry" />
        </mxCell>
        <mxCell id="6mh1XwxSeYeHlbQQtR5O-22" value="Да" style="rounded=0;whiteSpace=wrap;html=1;" vertex="1" parent="1">
          <mxGeometry x="235" y="665" width="120" height="60" as="geometry" />
        </mxCell>
        <mxCell id="6mh1XwxSeYeHlbQQtR5O-28" value="" style="edgeStyle=orthogonalEdgeStyle;rounded=0;orthogonalLoop=1;jettySize=auto;html=1;" edge="1" parent="1" target="6mh1XwxSeYeHlbQQtR5O-31">
          <mxGeometry relative="1" as="geometry">
            <mxPoint x="410" y="660" as="sourcePoint" />
          </mxGeometry>
        </mxCell>
        <mxCell id="6mh1XwxSeYeHlbQQtR5O-29" style="edgeStyle=orthogonalEdgeStyle;rounded=0;orthogonalLoop=1;jettySize=auto;html=1;exitX=0;exitY=0.5;exitDx=0;exitDy=0;entryX=0.5;entryY=0;entryDx=0;entryDy=0;" edge="1" parent="1" source="6mh1XwxSeYeHlbQQtR5O-31" target="6mh1XwxSeYeHlbQQtR5O-33">
          <mxGeometry relative="1" as="geometry" />
        </mxCell>
        <mxCell id="6mh1XwxSeYeHlbQQtR5O-30" style="edgeStyle=orthogonalEdgeStyle;rounded=0;orthogonalLoop=1;jettySize=auto;html=1;exitX=1;exitY=0.5;exitDx=0;exitDy=0;" edge="1" parent="1" source="6mh1XwxSeYeHlbQQtR5O-31" target="6mh1XwxSeYeHlbQQtR5O-32">
          <mxGeometry relative="1" as="geometry" />
        </mxCell>
        <mxCell id="6mh1XwxSeYeHlbQQtR5O-35" value="" style="edgeStyle=orthogonalEdgeStyle;rounded=0;orthogonalLoop=1;jettySize=auto;html=1;" edge="1" parent="1" source="6mh1XwxSeYeHlbQQtR5O-31" target="6mh1XwxSeYeHlbQQtR5O-34">
          <mxGeometry relative="1" as="geometry" />
        </mxCell>
        <mxCell id="6mh1XwxSeYeHlbQQtR5O-31" value="c &gt; -1 &amp;&amp; c &lt; 1" style="rhombus;whiteSpace=wrap;html=1;rounded=1;" vertex="1" parent="1">
          <mxGeometry x="340" y="735" width="140" height="80" as="geometry" />
        </mxCell>
        <mxCell id="6mh1XwxSeYeHlbQQtR5O-32" value="Нет" style="rounded=0;whiteSpace=wrap;html=1;" vertex="1" parent="1">
          <mxGeometry x="470" y="810" width="120" height="60" as="geometry" />
        </mxCell>
        <mxCell id="6mh1XwxSeYeHlbQQtR5O-33" value="Да" style="rounded=0;whiteSpace=wrap;html=1;" vertex="1" parent="1">
          <mxGeometry x="235" y="815" width="120" height="60" as="geometry" />
        </mxCell>
        <mxCell id="6mh1XwxSeYeHlbQQtR5O-37" value="" style="edgeStyle=orthogonalEdgeStyle;rounded=0;orthogonalLoop=1;jettySize=auto;html=1;" edge="1" parent="1" source="6mh1XwxSeYeHlbQQtR5O-34" target="6mh1XwxSeYeHlbQQtR5O-36">
          <mxGeometry relative="1" as="geometry" />
        </mxCell>
        <mxCell id="6mh1XwxSeYeHlbQQtR5O-34" value="a, b, c" style="shape=parallelogram;perimeter=parallelogramPerimeter;whiteSpace=wrap;html=1;fixedSize=1;rounded=1;" vertex="1" parent="1">
          <mxGeometry x="350" y="900" width="120" height="60" as="geometry" />
        </mxCell>
        <mxCell id="6mh1XwxSeYeHlbQQtR5O-36" value="Конец" style="whiteSpace=wrap;html=1;rounded=1;" vertex="1" parent="1">
          <mxGeometry x="350" y="1010" width="120" height="60" as="geometry" />
        </mxCell>
      </root>
    </mxGraphModel>
  </diagram>
</mxfile>
